<?xml version="1.0" standalone="no"?><!DOCTYPE svg PUBLIC "-//W3C//DTD SVG 1.1//EN" "http://www.w3.org/Graphics/SVG/1.1/DTD/svg11.dtd"><svg t="1625886738401" class="icon" viewBox="0 0 1024 1024" version="1.1" xmlns="http://www.w3.org/2000/svg" p-id="2885" xmlns:xlink="http://www.w3.org/1999/xlink" width="200" height="200"><defs><style type="text/css"></style></defs><path d="M512 512m-512 0a512 512 0 1 0 1024 0 512 512 0 1 0-1024 0Z" fill="#9AF4EF" p-id="2886"></path><path d="M814.752 99.166C588.12 159.672 421.154 366.296 421.154 612c0 161.328 72.062 305.738 185.64 403.096C844.252 970.622 1024 762.364 1024 512c0-169.472-82.392-319.646-209.248-412.834z" fill="#FFFFF4" opacity=".3" p-id="2887"></path><path d="M430 428.068c-22.496-18.61-55-2.068-72.5-17.068-23.39-20.048-28.702-25.292-50.062-30.768-19.5-5-37.156 6.312-55.938-18.732-13.5-18-26.234-16.178-42.526-12.178s-21.298-0.428-43.224-18.572c-14.5-12-27.75-16.25-57.75-15.25-25.302 0.844-45.202-4.764-63.698-11.788-17.786 39.876-30.68 82.396-37.788 126.876 72.46 7.606 94.24 4.3 122.486 13.412 31 10 332.334 71 337.668 68 5.334-3 8.872-50.608 8.872-50.608-30.262-5.468-30.674-21.026-45.54-33.324z" fill="#36B294" p-id="2888"></path><path d="M717.334 612c0 113.026 79.926 207.34 186.33 229.63C978.708 752.554 1024 637.59 1024 512c0-44.082-5.578-86.86-16.054-127.674-17.96-4.402-36.628-6.992-55.946-6.992-129.602 0-234.666 105.062-234.666 234.666z" fill="#FFFFF4" opacity=".4" p-id="2889"></path><path d="M845.008 554.036a10.104 10.104 0 0 1-10.108-10.102v-108.796a10.104 10.104 0 0 1 10.108-10.102 10.104 10.104 0 0 1 10.108 10.102v108.796a10.102 10.102 0 0 1-10.108 10.102z" fill="#674447" p-id="2890"></path><path d="M908.672 425.87c0 35.162-28.504 63.666-63.666 63.666-35.162 0-63.666-28.504-63.666-63.666s28.504-143.25 63.666-143.25c35.162 0.002 63.666 108.088 63.666 143.25z" fill="#43AB5F" p-id="2891"></path><path d="M845.006 282.62c-8.826 0-17.232 6.822-24.874 17.582h0.002c32.182 0 58.27 98.928 58.27 131.11 0 27.994-19.756 51.334-46.076 56.946 4.098 0.828 8.334 1.278 12.676 1.278 35.162 0 63.666-28.504 63.666-63.666 0.002-35.162-28.504-143.25-63.664-143.25z" fill="#71BE63" p-id="2892"></path><path d="M333.292 283.246c0-21.15 17.146-38.298 38.298-38.298 3.192 0 6.244 0.504 9.208 1.24 9.994-10.792 24.162-17.654 40.03-17.654 30.216 0 54.71 24.494 54.71 54.71h-142.246zM328.59 130c0-18.884 15.308-34.192 34.192-34.192 2.85 0 5.576 0.45 8.222 1.108 8.922-9.636 21.572-15.762 35.74-15.762 26.976 0 48.846 21.87 48.846 48.846h-127zM800 169.23c0-15.166-12.296-27.462-27.462-27.462-2.29 0-4.478 0.362-6.604 0.89-7.166-7.738-17.326-12.66-28.704-12.66C715.564 130 698 147.564 698 169.23h102z" fill="#FFFFFF" opacity=".6" p-id="2893"></path><path d="M527.756 496c-13.46 0-15.704-13.31-17.024-16-14.732-30-32.566-16-61.826-16-22.876 0-27.552-33.334-40.32-32-12.768 1.334-33.338 22.666-51.072 16-25.448-9.568-26.246-24-51.074-32-21.908-7.06-40.432-2-51.074-16-20.718-27.26-35.644 2.5-68.098-16-33.006-18.816-43.27 16-68.096 16-26.082 0-17.026-32-51.074-32-19.288 0-30.656 23.52-55.052 30.17C4.606 434.794 0 472.856 0 512c0 20.184 1.316 40.054 3.62 59.626 7.83 7.266 16.296 13.656 24.786 17.302C58.844 602 698 613.23 698 613.23V560c-46.818 0-46.818-32-85.122-32-51.606 0-46.818-32-85.122-32z" fill="#00A07D" p-id="2894"></path><path d="M214 867.096l474-253.868-12-25.896c-114.77 0-313.932-116.668-676-75.334 0 127.534 46.736 244.08 123.876 333.712C172.328 857.284 214 867.096 214 867.096z" fill="#94D75B" p-id="2895"></path><path d="M676 587.334c-105.246 0-281.562-98.018-589.286-82.426 273.59 0.236 441.37 122.706 527.286 122.706l24-8.952 38.714-29.784-0.714-1.544z" fill="#B0EB81" p-id="2896"></path><path d="M360.522 239.35c-4.606 0-8.958 0.906-13.13 2.222-13.214-18.996-35.136-31.486-60.028-31.486s-46.814 12.49-60.028 31.486c-4.172-1.316-8.524-2.222-13.13-2.222-24.242 0-43.896 19.652-43.896 43.896h234.108c-0.002-24.242-19.654-43.896-43.896-43.896zM704 198.666c-5.036 0-9.796 0.992-14.358 2.43-14.45-20.772-38.42-34.43-65.642-34.43s-51.192 13.658-65.642 34.43c-4.562-1.438-9.322-2.43-14.358-2.43-26.51 0-48 21.49-48 48h256c0-26.51-21.49-48-48-48zM369.41 166.666c0-28.35 22.982-51.334 51.334-51.334 4.278 0 8.37 0.676 12.344 1.664 13.394-14.466 32.386-23.664 53.656-23.664 40.5 0 73.334 32.832 73.334 73.334h-190.668z" fill="#FFFFFF" p-id="2897"></path><path d="M45.334 722.568C125.646 900.272 304.316 1024 512 1024c282.77 0 512-229.23 512-512 0-5.344-0.24-10.628-0.402-15.932C706.984 497.52 563.412 720 45.334 720v2.568z" fill="#71BE63" p-id="2898"></path><path d="M698.004 618.66a11.466 11.466 0 0 1-11.472-11.462v-123.46c0-6.33 5.132-11.462 11.472-11.462s11.47 5.132 11.47 11.462v123.46a11.464 11.464 0 0 1-11.47 11.462z" fill="#674447" p-id="2899"></path><path d="M770.246 473.222c0 39.9-32.346 72.246-72.246 72.246s-72.246-32.346-72.246-72.246S658.1 310.666 698 310.666s72.246 122.654 72.246 162.556z" fill="#43AB5F" p-id="2900"></path><path d="M698 310.666c-10.016 0-19.554 7.742-28.226 19.952h0.002c36.52 0 66.124 112.26 66.124 148.78 0 31.766-22.418 58.252-52.286 64.622 4.65 0.94 9.458 1.45 14.384 1.45 39.9 0 72.248-32.346 72.248-72.246 0.002-39.904-32.346-162.558-72.246-162.558z" fill="#71BE63" p-id="2901"></path><path d="M1022.788 545.52c-225.026 1.104-547.624 312.458-862.516 337.964C251.992 970.426 375.63 1024 512 1024c271.496 0 493.506-211.352 510.788-478.48z" fill="#43AB5F" p-id="2902"></path><path d="M391.082 897.334m-13.334 0a13.334 13.334 0 1 0 26.668 0 13.334 13.334 0 1 0-26.668 0Z" fill="#B0EB81" p-id="2903"></path><path d="M453.334 740.532m-13.334 0a13.334 13.334 0 1 0 26.668 0 13.334 13.334 0 1 0-26.668 0Z" fill="#94D75B" p-id="2904"></path><path d="M814.132 565.42m-13.334 0a13.334 13.334 0 1 0 26.668 0 13.334 13.334 0 1 0-26.668 0Z" fill="#94D75B" p-id="2905"></path><path d="M591.53 918.666m-13.334 0a13.334 13.334 0 1 0 26.668 0 13.334 13.334 0 1 0-26.668 0Z" fill="#71BE63" p-id="2906"></path><path d="M663.382 836m-13.334 0a13.334 13.334 0 1 0 26.668 0 13.334 13.334 0 1 0-26.668 0Z" fill="#B0EB81" p-id="2907"></path><path d="M512 854.964m-13.334 0a13.334 13.334 0 1 0 26.668 0 13.334 13.334 0 1 0-26.668 0Z" fill="#71BE63" p-id="2908"></path><path d="M288 910.666m-13.334 0a13.334 13.334 0 1 0 26.668 0 13.334 13.334 0 1 0-26.668 0Z" fill="#71BE63" p-id="2909"></path><path d="M301.334 798.094m-13.334 0a13.334 13.334 0 1 0 26.668 0 13.334 13.334 0 1 0-26.668 0Z" fill="#B0EB81" p-id="2910"></path><path d="M525.334 690.666m-13.334 0a13.334 13.334 0 1 0 26.668 0 13.334 13.334 0 1 0-26.668 0Z" fill="#B0EB81" p-id="2911"></path><path d="M191.96 791.426m-13.334 0a13.334 13.334 0 1 0 26.668 0 13.334 13.334 0 1 0-26.668 0Z" fill="#94D75B" p-id="2912"></path><path d="M756.914 778.094m-13.334 0a13.334 13.334 0 1 0 26.668 0 13.334 13.334 0 1 0-26.668 0Z" fill="#B0EB81" p-id="2913"></path><path d="M886.004 740.532m-13.334 0a13.334 13.334 0 1 0 26.668 0 13.334 13.334 0 1 0-26.668 0Z" fill="#B0EB81" p-id="2914"></path><path d="M639.086 764.76m-13.334 0a13.334 13.334 0 1 0 26.668 0 13.334 13.334 0 1 0-26.668 0Z" fill="#71BE63" p-id="2915"></path><path d="M756.914 867.096m-13.334 0a13.334 13.334 0 1 0 26.668 0 13.334 13.334 0 1 0-26.668 0Z" fill="#71BE63" p-id="2916"></path><path d="M797.334 704m-13.334 0a13.334 13.334 0 1 0 26.668 0 13.334 13.334 0 1 0-26.668 0Z" fill="#71BE63" p-id="2917"></path><path d="M886.004 626.562m-13.334 0a13.334 13.334 0 1 0 26.668 0 13.334 13.334 0 1 0-26.668 0Z" fill="#71BE63" p-id="2918"></path></svg>