<?xml version="1.0" standalone="no"?><!DOCTYPE svg PUBLIC "-//W3C//DTD SVG 1.1//EN" "http://www.w3.org/Graphics/SVG/1.1/DTD/svg11.dtd"><svg t="1625886731919" class="icon" viewBox="0 0 1024 1024" version="1.1" xmlns="http://www.w3.org/2000/svg" p-id="2672" xmlns:xlink="http://www.w3.org/1999/xlink" width="200" height="200"><defs><style type="text/css"></style></defs><path d="M512 512m-512 0a512 512 0 1 0 1024 0 512 512 0 1 0-1024 0Z" fill="#FFF9BB" p-id="2673"></path><path d="M19.656 652.41C84.828 661.742 158 672 158 672l90-85.5c-85.878 0-178.506-50.676-247.618-59.37 1.262 43.332 7.89 85.294 19.274 125.28zM494.666 613c-111 0 386.334 46.3 386.334 46.3l124.692-11.634a510.59 510.59 0 0 0 17.21-103.628C881.334 544.04 664 613 494.666 613z" fill="#FFEA96" p-id="2674"></path><path d="M9.12 608C54.072 844.86 262.058 1024 512 1024s457.93-179.14 502.88-416H9.12z" fill="#D6EB76" p-id="2675"></path><path d="M669.458 556.264c0-22.096-17.636-108.264-28.79-108.264-0.634 0-1.292 0.352-1.964 0.884-0.232 0.184-0.472 0.468-0.708 0.712a12.724 12.724 0 0 0-1.34 1.634c-0.294 0.416-0.584 0.862-0.878 1.352-0.416 0.696-0.838 1.488-1.26 2.324-0.308 0.604-0.61 1.16-0.918 1.832-0.044 0.098-0.088 0.17-0.136 0.272a0.108 0.108 0 0 1 0.008 0.016c-10.244 22.63-21.594 81.51-21.594 99.238 0 19.5 10.046 30.398 23.334 32.696l-0.002 0.002c0.166 0.028 0.342 0.018 0.51 0.044v27.086a4.95 4.95 0 0 0 9.9 0v-27.088c13.532-2.112 23.838-13.002 23.838-32.74zM181.776 577.602c0-14.818-11.826-72.602-19.306-72.602-0.426 0-0.866 0.236-1.318 0.594-0.156 0.122-0.316 0.314-0.476 0.476a8.46 8.46 0 0 0-0.9 1.096c-0.198 0.28-0.392 0.578-0.588 0.908-0.28 0.468-0.562 0.998-0.844 1.558-0.206 0.404-0.41 0.778-0.616 1.228-0.03 0.066-0.058 0.114-0.092 0.182l0.006 0.012c-6.87 15.176-14.482 54.66-14.482 66.548 0 13.076 6.738 20.384 15.648 21.926h-0.002c0.112 0.02 0.23 0.012 0.342 0.03v18.164a3.32 3.32 0 0 0 6.64 0v-18.164c9.076-1.418 15.988-8.72 15.988-21.956z" fill="#D6EB76" p-id="2676"></path><path d="M16.314 639.698C73.068 860.638 273.352 1024 512 1024c233.7 0 430.688-156.628 492.05-370.602-207.268-8.042-758.886-19.986-987.736-13.7z" fill="#CCE16B" p-id="2677"></path><path d="M95.33 631.794c-1.21 0-2.356 0.238-3.452 0.584-3.474-4.994-9.236-8.278-15.782-8.278-6.544 0-12.308 3.284-15.782 8.278-1.096-0.346-2.24-0.584-3.452-0.584a11.54 11.54 0 0 0-11.54 11.54h61.546a11.536 11.536 0 0 0-11.538-11.54zM943.276 656c0-10.844-8.792-19.636-19.636-19.636-1.636 0-3.202 0.258-4.722 0.636-5.124-5.534-12.388-9.052-20.524-9.052-15.492 0-28.05 12.558-28.05 28.05h72.932z" fill="#CCE16B" p-id="2678"></path><path d="M352 656H176v-137.6l80.002-48 95.998 48z" fill="#FFFCEC" p-id="2679"></path><path d="M176 526.578v27.984l88.64-53.186L352 553.794v-27.986l-50.758-30.456-39.928-19.964z" fill="#FF8562" opacity=".25" p-id="2680"></path><path d="M354.468 538.29l-89.828-53.9-89.828 53.9-12.344-20.58 102.172-61.304 102.172 61.304z" fill="#FF8562" p-id="2681"></path><path d="M624 474.5L432 378l-80 50.5V656h272z" fill="#FFFCEC" p-id="2682"></path><path d="M352 426.902v28.844l80.656-53.772L624 505v-27.25l-192.656-103.744z" fill="#FF8562" opacity=".25" p-id="2683"></path><path d="M600.304 260.364c-4.578 0-8.906 0.902-13.052 2.208-13.136-18.884-34.928-31.3-59.676-31.3-24.746 0-46.538 12.416-59.676 31.3-4.146-1.308-8.474-2.208-13.052-2.208-24.1 0-43.636 19.536-43.636 43.636H643.94c0-24.1-19.536-43.636-43.636-43.636z" fill="#FFEB97" p-id="2684"></path><path d="M888.612 285.818c-2.862 0-5.566 0.564-8.158 1.38-8.21-11.802-21.83-19.562-37.296-19.562-15.466 0-29.086 7.76-37.296 19.562-2.592-0.818-5.296-1.38-8.158-1.38-15.062 0-27.272 12.21-27.272 27.272h145.452c0.002-15.062-12.21-27.272-27.272-27.272zM456 216c0-30.928-25.072-56-56-56-4.668 0-9.13 0.738-13.466 1.814C371.922 146.034 351.204 136 328 136c-44.182 0-80 35.818-80 80h208z" fill="#FFF1A9" p-id="2685"></path><path d="M524.92 176c0-19.314-15.656-34.97-34.97-34.97-2.914 0-5.702 0.462-8.408 1.134-9.124-9.854-22.062-16.12-36.552-16.12-27.59 0-49.956 22.366-49.956 49.956h129.886zM718.732 151.022c0-16.09-13.042-29.132-29.132-29.132-2.428 0-4.75 0.384-7.006 0.944-7.602-8.21-18.38-13.43-30.45-13.43-22.984 0-41.618 18.632-41.618 41.618h108.206zM831.152 290.364c0-12.646-10.252-22.898-22.898-22.898-1.908 0-3.734 0.302-5.506 0.742-5.974-6.452-14.446-10.554-23.934-10.554-18.066 0-32.71 14.644-32.71 32.71h85.048z" fill="#FFF1A9" p-id="2686"></path><path d="M174.756 328.978c0-19.314 15.656-34.97 34.97-34.97 2.914 0 5.702 0.462 8.408 1.134 9.124-9.854 22.062-16.12 36.552-16.12 27.59 0 49.956 22.366 49.956 49.956H174.756zM563.656 269.416c0-17.558 14.234-31.79 31.79-31.79 2.65 0 5.184 0.42 7.644 1.03 8.296-8.958 20.058-14.654 33.23-14.654 25.082 0 45.416 20.334 45.416 45.416h-118.08z" fill="#FFEB97" p-id="2687"></path><path d="M634.312 493.334l-201.656-108.578-90 60-13.312-19.97 102-68 214.344 115.422z" fill="#FF8562" p-id="2688"></path><path d="M404.05 556.014h62.63V656h-62.63z" fill="#BF9672" p-id="2689"></path><path d="M395.364 478.5h80v53h-80z" fill="#63A0B5" p-id="2690"></path><path d="M479.36 535.5h-88v-61h88v61z m-80-8h72v-45h-72v45z" fill="#4185A6" p-id="2691"></path><path d="M431.36 478.5h8v53h-8z" fill="#4185A6" p-id="2692"></path><path d="M500.034 478.5h80v53h-80z" fill="#63A0B5" p-id="2693"></path><path d="M584.032 535.5h-88v-61h88v61z m-80-8h72v-45h-72v45z" fill="#4185A6" p-id="2694"></path><path d="M536.032 478.5h8v53h-8z" fill="#4185A6" p-id="2695"></path><path d="M500.034 560h80v53h-80z" fill="#63A0B5" p-id="2696"></path><path d="M584.032 617h-88V556h88v61z m-80-8h72V564h-72v45z" fill="#4185A6" p-id="2697"></path><path d="M536.032 560h8v53h-8z" fill="#4185A6" p-id="2698"></path><path d="M224.644 560h80v53h-80z" fill="#63A0B5" p-id="2699"></path><path d="M308.64 617h-88V556h88v61z m-80-8h72V564h-72v45z" fill="#4185A6" p-id="2700"></path><path d="M260.64 560h8v53h-8z" fill="#4185A6" p-id="2701"></path><path d="M738.892 659.302a8.396 8.396 0 0 1-8.4-8.394v-90.41c0-4.636 3.758-8.394 8.4-8.394s8.4 3.758 8.4 8.394v90.41a8.396 8.396 0 0 1-8.4 8.394z" fill="#828240" p-id="2702"></path><path d="M798.45 537.05c0 45.708-26.666 68.652-59.56 68.652s-59.56-22.944-59.56-68.652 36.484-223.96 59.56-223.96 59.56 178.252 59.56 223.96z" fill="#69BE5D" p-id="2703"></path><path d="M738.89 313.09c-4.57 0-9.668 7.068-14.904 18.636 18.824 28.51 43.178 169.368 43.178 208.494 0 38.224-16.998 59.744-39.566 64.472a66.02 66.02 0 0 0 11.29 1.012c32.894 0 59.56-22.944 59.56-68.652 0.002-45.71-36.484-223.962-59.558-223.962z" fill="#9DC85C" p-id="2704"></path><path d="M826.428 659.302a8.396 8.396 0 0 1-8.4-8.394v-90.41c0-4.636 3.758-8.394 8.4-8.394s8.4 3.758 8.4 8.394v90.41a8.396 8.396 0 0 1-8.4 8.394z" fill="#828240" p-id="2705"></path><path d="M875.274 549.396c0 37.488-21.87 56.306-48.848 56.306-26.978 0-48.848-18.818-48.848-56.306s29.924-183.686 48.848-183.686 48.848 146.198 48.848 183.686z" fill="#69BE5D" p-id="2706"></path><path d="M826.426 365.71c-3.748 0-7.93 5.796-12.224 15.284 15.44 23.382 35.414 138.91 35.414 171 0 31.35-13.94 49-32.45 52.878a54.16 54.16 0 0 0 9.26 0.83c26.978 0 48.85-18.818 48.85-56.306-0.002-37.488-29.926-183.686-48.85-183.686z" fill="#9DC85C" p-id="2707"></path><path d="M980.75 567.682c0-18.202-14.528-89.182-23.716-89.182-0.522 0-1.064 0.29-1.618 0.728-0.192 0.15-0.388 0.386-0.584 0.586a10.284 10.284 0 0 0-1.104 1.346 18.96 18.96 0 0 0-0.724 1.114 31.06 31.06 0 0 0-1.038 1.914c-0.254 0.498-0.502 0.956-0.756 1.508-0.036 0.082-0.072 0.14-0.112 0.224l0.01 0.018c-8.442 18.636-17.792 67.14-17.792 81.742 0 16.062 8.276 25.04 19.222 26.934h-0.002c0.138 0.024 0.282 0.016 0.42 0.038v22.312a4.078 4.078 0 0 0 8.156 0v-22.314c11.148-1.74 19.638-10.71 19.638-26.968zM153.94 573.234c0-16.308-13.016-79.9-21.248-79.9-0.468 0-0.954 0.26-1.45 0.652-0.172 0.136-0.348 0.344-0.524 0.524a9.344 9.344 0 0 0-0.99 1.206 16.042 16.042 0 0 0-0.648 0.998c-0.308 0.514-0.618 1.098-0.93 1.716-0.226 0.446-0.45 0.856-0.678 1.352-0.032 0.072-0.064 0.126-0.1 0.2l0.01 0.016c-7.564 16.696-15.94 60.152-15.94 73.236 0 14.392 7.414 22.434 17.222 24.13h-0.002c0.124 0.022 0.252 0.014 0.376 0.034v19.99a3.654 3.654 0 0 0 7.308 0v-19.992c9.988-1.558 17.594-9.596 17.594-24.162zM84.056 583.72c0-12.73-10.16-62.374-16.586-62.374-0.366 0-0.744 0.202-1.132 0.51-0.134 0.106-0.272 0.27-0.408 0.41a7.272 7.272 0 0 0-0.772 0.942c-0.17 0.24-0.336 0.496-0.506 0.78-0.24 0.402-0.482 0.858-0.726 1.338-0.178 0.348-0.352 0.668-0.528 1.056l-0.078 0.156a0.12 0.12 0 0 0 0.006 0.01c-5.902 13.038-12.442 46.96-12.442 57.174 0 11.234 5.788 17.514 13.444 18.838h-0.002c0.096 0.016 0.198 0.01 0.294 0.026v15.606a2.85 2.85 0 0 0 5.704 0v-15.606c7.796-1.22 13.732-7.494 13.732-18.866z" fill="#D6EB76" p-id="2708"></path><path d="M943.276 559.41c0-21.022-16.778-103.004-27.392-103.004-0.604 0-1.23 0.334-1.868 0.842-0.222 0.174-0.448 0.444-0.674 0.676a12.172 12.172 0 0 0-1.276 1.554c-0.28 0.396-0.556 0.82-0.836 1.288-0.396 0.662-0.798 1.416-1.198 2.212-0.292 0.574-0.58 1.104-0.872 1.742-0.042 0.094-0.084 0.162-0.13 0.258a0.108 0.108 0 0 1 0.008 0.016c-9.746 21.53-20.546 77.55-20.546 94.418 0 18.552 9.558 28.922 22.202 31.108l-0.002 0.002c0.158 0.028 0.326 0.018 0.484 0.042v25.77a4.708 4.708 0 0 0 9.42 0v-25.772c12.876-2.012 22.68-12.372 22.68-31.152z" fill="#D6EB76" p-id="2709"></path><path d="M50.882 734.066C133.558 905.578 308.844 1024 512 1024c209.58 0 389.558-126.008 468.75-306.336-234.286-18.74-739.162-10.558-929.868 16.402z" fill="#D0D75B" p-id="2710"></path><path d="M853.594 893.164c-166.874-43.52-509.408-104.296-755.39-80.534C191.198 940.592 341.688 1024 512 1024c131.336 0 251.026-49.508 341.594-130.836z" fill="#D8C34A" p-id="2711"></path><path d="M221.194 932.92C303.722 990.26 403.828 1024 512 1024c111.564 0 214.648-35.822 298.696-96.426-162.188-10.632-426.732-17.296-589.502 5.346z" fill="#D0B459" p-id="2712"></path><path d="M162.468 643.334h475.062V656H162.468z" fill="#AB8240" p-id="2713"></path><path d="M366.812 852.42m-13.334 0a13.334 13.334 0 1 0 26.668 0 13.334 13.334 0 1 0-26.668 0Z" fill="#D0D75B" p-id="2714"></path><path d="M422.032 965.666m-13.334 0a13.334 13.334 0 1 0 26.668 0 13.334 13.334 0 1 0-26.668 0Z" fill="#D8C34A" p-id="2715"></path><path d="M598.542 979m-13.334 0a13.334 13.334 0 1 0 26.668 0 13.334 13.334 0 1 0-26.668 0Z" fill="#D8C34A" p-id="2716"></path><path d="M659.02 892.42m-13.334 0a13.334 13.334 0 1 0 26.668 0 13.334 13.334 0 1 0-26.668 0Z" fill="#D0B459" p-id="2717"></path><path d="M527.576 957.548m-13.334 0a13.334 13.334 0 1 0 26.668 0 13.334 13.334 0 1 0-26.668 0Z" fill="#D0D75B" p-id="2718"></path><path d="M571.876 874.666m-13.334 0a13.334 13.334 0 1 0 26.668 0 13.334 13.334 0 1 0-26.668 0Z" fill="#D0D75B" p-id="2719"></path><path d="M475.898 879.086m-13.334 0a13.334 13.334 0 1 0 26.668 0 13.334 13.334 0 1 0-26.668 0Z" fill="#D0B459" p-id="2720"></path><path d="M342.678 773.334m-8 0a8 8 0 1 0 16 0 8 8 0 1 0-16 0Z" fill="#CCE16B" p-id="2721"></path><path d="M593.21 800m-8 0a8 8 0 1 0 16 0 8 8 0 1 0-16 0Z" fill="#CCE16B" p-id="2722"></path><path d="M769.218 834.666m-8 0a8 8 0 1 0 16 0 8 8 0 1 0-16 0Z" fill="#CCE16B" p-id="2723"></path><path d="M715.986 757.334m-8 0a8 8 0 1 0 16 0 8 8 0 1 0-16 0Z" fill="#D8C34A" p-id="2724"></path><path d="M500.034 741.334m-8 0a8 8 0 1 0 16 0 8 8 0 1 0-16 0Z" fill="#D8C34A" p-id="2725"></path><path d="M264 879.086m-13.334 0a13.334 13.334 0 1 0 26.668 0 13.334 13.334 0 1 0-26.668 0Z" fill="#D0B459" p-id="2726"></path><path d="M208.534 635.182c-3.164 0-6.154 0.622-9.018 1.526-9.076-13.048-24.134-21.628-41.234-21.628s-32.156 8.578-41.234 21.628c-2.866-0.904-5.856-1.526-9.018-1.526-16.652 0-30.152 13.5-30.152 30.152h160.806c0.002-16.652-13.498-30.152-30.15-30.152z" fill="#9DC85C" p-id="2727"></path><path d="M264.644 665.186c0-14.956 12.124-27.08 27.08-27.08 2.258 0 4.416 0.356 6.512 0.878 7.066-7.63 17.086-12.484 28.306-12.484 21.366 0 38.686 17.32 38.686 38.686h-100.584z" fill="#9DC85C" p-id="2728"></path><path d="M189.202 635.182c-3.164 0-6.154 0.624-9.018 1.526-7.304-10.5-18.568-17.852-31.566-20.42-13 2.57-24.262 9.92-31.566 20.42-2.866-0.904-5.856-1.526-9.018-1.526-16.652 0-30.152 13.5-30.152 30.152h141.472c-0.002-16.654-13.5-30.152-30.152-30.152z" fill="#69BE5D" p-id="2729"></path><path d="M319.774 627.226a38.634 38.634 0 0 0-21.538 11.756c-2.096-0.52-4.254-0.876-6.512-0.876-14.956 0-27.08 12.124-27.08 27.08h86.606c0-18.896-13.566-34.574-31.476-37.96z" fill="#69BE5D" p-id="2730"></path><path d="M780.102 665.186c0-17.348 14.062-31.41 31.41-31.41 2.618 0 5.122 0.414 7.552 1.018 8.196-8.852 19.818-14.48 32.832-14.48 24.782 0 44.872 20.09 44.872 44.872h-116.666z" fill="#9DC85C" p-id="2731"></path><path d="M645.688 649.206c0-10.844 8.792-19.636 19.636-19.636 1.636 0 3.202 0.258 4.722 0.636 5.124-5.534 12.388-9.052 20.524-9.052 15.492 0 28.05 12.558 28.05 28.05h-72.932z" fill="#CCE16B" p-id="2732"></path><path d="M844.046 621.156a44.808 44.808 0 0 0-24.982 13.636c-2.432-0.602-4.936-1.018-7.552-1.018-17.348 0-31.41 14.062-31.41 31.41h100.454c0-21.916-15.734-40.102-36.51-44.028z" fill="#69BE5D" p-id="2733"></path></svg>