<?xml version="1.0" standalone="no"?><!DOCTYPE svg PUBLIC "-//W3C//DTD SVG 1.1//EN" "http://www.w3.org/Graphics/SVG/1.1/DTD/svg11.dtd"><svg t="1625886744464" class="icon" viewBox="0 0 1024 1024" version="1.1" xmlns="http://www.w3.org/2000/svg" p-id="3070" xmlns:xlink="http://www.w3.org/1999/xlink" width="200" height="200"><defs><style type="text/css"></style></defs><path d="M512 512m-512 0a512 512 0 1 0 1024 0 512 512 0 1 0-1024 0Z" fill="#8DD9FF" p-id="3071"></path><path d="M11.772 402.878C4.132 438.054 0 474.538 0 512c0 37.464 4.134 73.946 11.772 109.122C146.334 732.078 479.726 810.666 870 810.666c19.568 0 38.938-0.264 58.204-0.654C988.43 726.052 1024 623.21 1024 512c0-111.21-35.572-214.054-95.796-298.014-19.266-0.388-38.634-0.654-58.204-0.654-390.274 0.002-723.666 78.59-858.228 189.546z" fill="#FFFFF4" opacity=".3" p-id="3072"></path><path d="M0 512c0 108.192 33.646 208.482 90.92 291.158 185.228 52.106 446.284 89.892 745.526 104.896C950.932 814.154 1024 671.622 1024 512c0-68.088-13.406-133.014-37.534-192.442-414.68 9.738-772.386 62.542-983.588 138.252A517.07 517.07 0 0 0 0 512z" fill="#FFFFF4" opacity=".4" p-id="3073"></path><path d="M352 288c-18 4-40 46-64 48s-68 0-80 16c-5.76 7.682-13.358 38.062-19.708 64H443l12.334-75.334C435.334 326.666 370 284 352 288z" fill="#BBE6FF" p-id="3074"></path><path d="M0 512c0 282.77 229.23 512 512 512s512-229.23 512-512c0-32.828-3.214-64.89-9.12-96H9.12C3.214 447.11 0 479.172 0 512z" fill="#3B87C5" p-id="3075"></path><path d="M511.152 512c-189.39 0-363.126 41.12-499.262 109.626 48.22 220.958 239.012 388.582 471.196 401.514 9.64 0.318 19.206 0.86 28.948 0.86 0.128 0 0.254-0.01 0.382-0.01 9.552-0.004 18.93-0.534 28.384-0.842 231.964-12.868 422.626-180.14 471.132-400.75C875.57 553.43 701.25 512 511.152 512z" fill="#3C9BD4" p-id="3076"></path><path d="M379.334 183.882c-5.036 0-9.796 0.992-14.358 2.43-14.45-20.772-38.42-34.43-65.642-34.43s-51.192 13.658-65.642 34.43c-4.562-1.438-9.322-2.43-14.358-2.43-26.51 0-48 21.49-48 48h256c0-26.51-21.49-48-48-48z" fill="#FFFFFF" p-id="3077"></path><path d="M315.334 188.67c0-22.8 18.482-41.282 41.282-41.282 3.442 0 6.732 0.544 9.926 1.338 10.772-11.632 26.046-19.03 43.15-19.03 32.57 0 58.974 26.404 58.974 58.974h-153.332z" fill="#FFFFFF" p-id="3078"></path><path d="M512 146.942c0-19.428 15.75-35.18 35.18-35.18 2.932 0 5.736 0.464 8.46 1.14 9.18-9.914 22.196-16.216 36.772-16.216 27.756 0 50.256 22.5 50.256 50.256H512zM794.666 287.736c0-19.428 15.75-35.18 35.18-35.18 2.932 0 5.736 0.464 8.46 1.14 9.18-9.914 22.196-16.216 36.772-16.216 27.756 0 50.256 22.5 50.256 50.256h-130.668zM385.184 102.622c0-13.922 11.286-25.208 25.208-25.208 2.102 0 4.11 0.332 6.062 0.816 6.578-7.104 15.904-11.62 26.35-11.62 19.888 0 36.012 16.124 36.012 36.012h-93.632z" fill="#FFFFFF" opacity=".5" p-id="3079"></path><path d="M696.666 256c0-25.774 20.894-46.666 46.666-46.666 3.89 0 7.61 0.616 11.222 1.512 12.176-13.15 29.442-21.512 48.778-21.512C840.152 189.334 870 219.182 870 256h-173.334z" fill="#FFFFFF" p-id="3080"></path><path d="M816 416c0-50.666-43.586-70.238-64-80-24.208-11.576-74.666-8-96-48s-36.074-64-48-64c-22.666 0-78.666 10.666-112 48-27.11 30.364-21.334 58.666-64 80-12.844 6.422-48 15.926-48 64v80c0 60 69.334 101.334 96 112s60.422 272 96 272c34.666 0 74.666-130.666 96-144s64-15.778 64-80v-144c42.636-42.636 80 8 80-96z" fill="#BBE6FF" p-id="3081"></path><path d="M188.292 416c-2.646 10.808-5.082 20.864-7.068 28.154a45.944 45.944 0 0 0 5.448 36.644C207.476 513.888 251.806 586.19 256 608c15 78 48 88 64 128 8.304 20.76 51 8 64 0 18.346-11.29 48-144 48-144l11-176H188.292z" fill="#75C3F0" p-id="3082"></path><path d="M480 608c26.666 10.666 60.422 272 96 272 34.666 0 74.666-130.666 96-144 21.334-13.334 64-15.778 64-80v-144c42.636-42.636 80 8 80-96H384v80c0 60 69.334 101.334 96 112z" fill="#8DD9FF" p-id="3083"></path><path d="M352 288c-18 4-40 46-64 48s-68 0-80 16c-4.064 5.418-9.036 22.17-13.846 40.648 23.22 1.836 29.584-20.642 34.512-28.648 5.334-8.666 34.666-4.666 54.666-7.334 20-2.666 18.666 12.666 38.48 17.334 19.812 4.666 23.52-40.666 32.854-49.334C364 316 432 352 447.334 363.334l5.38-6.66 2.62-16.006C435.334 326.666 370 284 352 288z" fill="#FFFFFF" p-id="3084"></path><path d="M752 336c-24.208-11.576-74.666-8-96-48s-36.074-64-48-64c-22.666 0-78.666 10.666-112 48-27.11 30.364-21.334 58.666-64 80-12.398 6.2-45.284 15.616-47.574 59.476C401 389 454 375 487 383c21.732 5.268 7 21.722 32.116 21.722 18.868 0 17.336-80.214 30.884-92.722 13-12 27.158-8.846 36 24 14 52 102 13 215.334 35.286C786.768 352.144 764.82 342.13 752 336zM5.904 434h1012.192c-0.924-6.05-2.08-12.022-3.214-18H9.12c-1.136 5.978-2.29 11.95-3.216 18z" fill="#FFFFFF" p-id="3085"></path><path d="M660 581.636c0-38.052-29.334-45.538-29.334-17.254 0 16.324-23.25 31.298-37.786 10.618-11.856-16.866-15.546-65.822-15.546-88.334 0-44.666-36.308-47.03-36.308-1.354 0 66.686-29.116 55.048-29.116 81.354C511.91 616 538 658 512 690c-0.4 0.492-0.678 1.142-1.054 1.666C530.938 771.682 553.09 880 576 880c34.666 0 74.666-130.666 96-144 8.758-5.474 21.102-9.166 32.624-16C668 716 660 654.016 660 581.636z" fill="#75C3F0" p-id="3086"></path><path d="M371 605c0-50.334 3-79.666-17-88.334-17.734-7.684-37.5 16.834-42.704-4.666-9.566-39.526-9.962-52.958-22.768-52.958-12.53 0-17.53 19.794-17.53 68.958 0 74.136 7.666 85.806-11.866 94.284C275.204 687.396 305.036 698.586 320 736c8.304 20.76 51 8 64 0 12.304-7.572 29.66-69.66 39.78-109.798-9.114 21.798-52.78 23.2-52.78-21.202z" fill="#5AB0E2" p-id="3087"></path></svg>